Exact Audio Copy V0.99 prebeta 1 from 25. May 2007

EAC 抓取日志文件从2. 十一月 2010, 23:55

蒋大为 / 20世纪中华歌坛名人百集珍藏版

使用驱动器  ：BENQ    DVD-ROM 16X   Adapter: 0  ID: 1

读取模式     : 保护
使用精确流   : 是
废除音频缓冲 : 是
使用 C2 指针 : 否

读取偏移校正                   : 738
读取 Lead-In 和 Lead-Out       : 否
用静音填充抓取中丢失偏移的采样 : 是
去除首尾静音块                 : 否
已用接口                       : 已安装外部 ASPI 接口

所用输出格式 : 内部 WAV 函数
样本格式     : 44.100 Hz;16 Bit;立体声


被抓轨 CD 的 TOC

     音轨 |   开始   |   长度   | 起始扇区 | 结尾扇区 
    --------------------------------------------------
       1  |  0:00.00 |  3:31.42 |       0  |   15866  
       2  |  3:31.42 |  2:59.03 |   15867  |   29294  
       3  |  6:30.45 |  4:46.62 |   29295  |   50806  
       4  | 11:17.32 |  2:35.70 |   50807  |   62501  
       5  | 13:53.27 |  3:27.13 |   62502  |   78039  
       6  | 17:20.40 |  3:10.50 |   78040  |   92339  
       7  | 20:31.15 |  2:53.25 |   92340  |  105339  
       8  | 23:24.40 |  3:50.20 |  105340  |  122609  
       9  | 27:14.60 |  3:51.10 |  122610  |  139944  
      10  | 31:05.70 |  3:50.25 |  139945  |  157219  
      11  | 34:56.20 |  3:34.65 |  157220  |  173334  
      12  | 38:31.10 |  3:08.60 |  173335  |  187494  
      13  | 41:39.70 |  2:54.65 |  187495  |  200609  
      14  | 44:34.60 |  2:47.05 |  200610  |  213139  
      15  | 47:21.65 |  4:29.40 |  213140  |  233354  
      16  | 51:51.30 |  3:43.47 |  233355  |  250126  


范围状态及错误

已选择范围

     文件名 E:\文件夹\20世纪中华歌坛名人百集珍藏版-蒋大为[lwg188原创]\蒋大为 - 20世纪中华歌坛名人百集珍藏版.wav

     峰值电平 99.9 %
     范围质量 100.0 %
     复制 CRC 6D710A8C
     复制成功

没有错误发生

状态报告结尾
